<?xml version="1.0" encoding="utf-8"?>
<!-- Generator: Adobe Illustrator 21.0.2, SVG Export Plug-In . SVG Version: 6.00 Build 0)  -->
<svg version="1.1" id="Layer_1" xmlns="http://www.w3.org/2000/svg" xmlns:xlink="http://www.w3.org/1999/xlink" x="0px" y="0px"
	 viewBox="0 0 508 508" style="enable-background:new 0 0 508 508;" xml:space="preserve">
<style type="text/css">
	.st0{fill:#8697CB;}
	.st1{fill:#464655;}
	.st2{fill:#FFFFFF;}
	.st3{fill:#BEC8DC;}
	.st4{fill:#AFBBD0;}
	.st5{fill:#96A5B9;}
	.st6{fill:#E4EAF6;}
	.st7{fill:#FF6469;}
</style>
<circle class="st0" cx="254" cy="254" r="254"/>
<g>
	<path class="st1" d="M436.2,92.6H71.8c-7.5,0-13.5,6-13.5,13.5v216h391.4v-216C449.7,98.7,443.7,92.6,436.2,92.6z M429.5,301.9
		h-351v-189h351V301.9z"/>
	<g>
		<path class="st2" d="M213.5,197.3c1.9,0,3.4,1.5,3.4,3.4H227v-10.1h-13.5c-1.9,0-3.4-1.5-3.4-3.4s1.5-3.4,3.4-3.4H227v-43.9h-60.7
			v60.7h43.9C210.1,198.8,211.6,197.3,213.5,197.3z"/>
		<path class="st2" d="M78.5,301.9h351v-189h-351V301.9z M227,285h-13.5c-1.9,0-3.4-1.5-3.4-3.4c0-1.9,1.5-3.4,3.4-3.4H227
			c1.9,0,3.4,1.5,3.4,3.4C230.4,283.5,228.9,285,227,285z M213.5,251.3c1.9,0,3.4,1.5,3.4,3.4v13.5c0,1.9-1.5,3.4-3.4,3.4
			s-3.4-1.5-3.4-3.4v-13.5C210.1,252.8,211.6,251.3,213.5,251.3z M210.1,241.1v-13.5c0-1.9,1.5-3.4,3.4-3.4s3.4,1.5,3.4,3.4v13.5
			c0,1.9-1.5,3.4-3.4,3.4S210.1,243,210.1,241.1z M254,285h-13.5c-1.9,0-3.4-1.5-3.4-3.4c0-1.9,1.5-3.4,3.4-3.4H254
			c1.9,0,3.4,1.5,3.4,3.4C257.4,283.5,255.9,285,254,285z M311.4,268.1c0,1.9-1.5,3.4-3.4,3.4c-1.9,0-3.4-1.5-3.4-3.4v-13.5
			c0-1.9,1.5-3.4,3.4-3.4c1.9,0,3.4,1.5,3.4,3.4V268.1z M311.4,241.1c0,1.9-1.5,3.4-3.4,3.4c-1.9,0-3.4-1.5-3.4-3.4v-13.5
			c0-1.9,1.5-3.4,3.4-3.4c1.9,0,3.4,1.5,3.4,3.4V241.1z M311.4,214.1c0,1.9-1.5,3.4-3.4,3.4c-1.9,0-3.4-1.5-3.4-3.4v-13.5
			c0-1.9,1.5-3.4,3.4-3.4c1.9,0,3.4,1.5,3.4,3.4V214.1z M341.7,220.9v-47.2v-40.5c0-3.7,3-6.7,6.7-6.7h60.7c3.7,0,6.7,3,6.7,6.7
			v40.5v47.2v60.7c0,3.7-3,6.7-6.7,6.7h-60.7c-3.7,0-6.7-3-6.7-6.7V220.9z M294.5,183.8H308c1.9,0,3.4,1.5,3.4,3.4s-1.5,3.4-3.4,3.4
			h-13.5c-1.9,0-3.4-1.5-3.4-3.4C291.1,185.3,292.6,183.8,294.5,183.8z M294.5,278.2H308c1.9,0,3.4,1.5,3.4,3.4
			c0,1.9-1.5,3.4-3.4,3.4h-13.5c-1.9,0-3.4-1.5-3.4-3.4C291.1,279.8,292.6,278.2,294.5,278.2z M267.5,183.8H281
			c1.9,0,3.4,1.5,3.4,3.4s-1.5,3.4-3.4,3.4h-13.5c-1.9,0-3.4-1.5-3.4-3.4S265.6,183.8,267.5,183.8z M267.5,278.2H281
			c1.9,0,3.4,1.5,3.4,3.4c0,1.9-1.5,3.4-3.4,3.4h-13.5c-1.9,0-3.4-1.5-3.4-3.4C264.1,279.8,265.6,278.2,267.5,278.2z M152.8,133.1
			c0-3.7,3-6.7,6.7-6.7h74.2c3.7,0,6.7,3,6.7,6.7v50.6H254c1.9,0,3.4,1.5,3.4,3.4s-1.5,3.4-3.4,3.4h-13.5v16.9
			c0,0.7-0.1,1.4-0.3,2.1l17.7,15.9c1.5,1.3,1.1,3.7-0.7,4.5l-6.7,2.9l6,13.7c0.7,1.7,0,3.7-1.7,4.4c-0.4,0.2-0.9,0.3-1.4,0.3
			c-1.3,0-2.5-0.8-3.1-2l-6-13.7l-6.7,2.9c-1.8,0.8-3.8-0.5-3.8-2.5l0.3-21.8c-0.1,0-0.2,0-0.3,0h-16.9c0,1.9-1.5,3.4-3.4,3.4
			s-3.4-1.5-3.4-3.4h-50.6c-3.7,0-6.7-3-6.7-6.7L152.8,133.1L152.8,133.1z M92,133.1c0-3.7,3-6.7,6.7-6.7H119c3.7,0,6.7,3,6.7,6.7
			v148.5c0,3.7-3,6.7-6.7,6.7H98.8c-3.7,0-6.7-3-6.7-6.7V133.1z"/>
	</g>
	<path class="st3" d="M58.3,349.1c0,7.5,6,13.5,13.5,13.5H200h108h128.2c7.5,0,13.5-6,13.5-13.5v-27H58.3V349.1z M254,332.2
		c5.6,0,10.1,4.5,10.1,10.1s-4.5,10.1-10.1,10.1c-5.6,0-10.1-4.5-10.1-10.1S248.4,332.2,254,332.2z"/>
	<polygon class="st4" points="194.1,409.9 313.9,409.9 309.7,376.1 198.3,376.1 	"/>
	<path class="st3" d="M193.3,409.9c-3.7,0-6.7,3-6.7,6.7c0,3.7,3,6.7,6.7,6.7h121.5c3.7,0,6.7-3,6.7-6.7c0-3.7-3-6.7-6.7-6.7h-0.8
		H194.1H193.3z"/>
	<g>
		<polygon class="st5" points="198.3,376.1 309.7,376.1 308,362.6 200,362.6 		"/>
		<circle class="st5" cx="254" cy="342.4" r="10.1"/>
	</g>
	<path class="st3" d="M98.8,288.4H119c3.7,0,6.7-3,6.7-6.7V133.1c0-3.7-3-6.7-6.7-6.7H98.8c-3.7,0-6.7,3-6.7,6.7v148.5
		C92,285.3,95,288.4,98.8,288.4z M105.5,139.9h6.7c3.7,0,6.7,3,6.7,6.7s-3,6.7-6.7,6.7h-6.7c-3.7,0-6.7-3-6.7-6.7
		C98.8,142.9,101.8,139.9,105.5,139.9z M105.5,160.1h6.7c3.7,0,6.7,3,6.7,6.7s-3,6.7-6.7,6.7h-6.7c-3.7,0-6.7-3-6.7-6.7
		C98.8,163.2,101.8,160.1,105.5,160.1z M105.5,180.4h6.7c3.7,0,6.7,3,6.7,6.7c0,3.7-3,6.7-6.7,6.7h-6.7c-3.7,0-6.7-3-6.7-6.7
		C98.8,183.4,101.8,180.4,105.5,180.4z M105.5,200.6h6.7c3.7,0,6.7,3,6.7,6.7c0,3.7-3,6.7-6.7,6.7h-6.7c-3.7,0-6.7-3-6.7-6.7
		C98.8,203.7,101.8,200.6,105.5,200.6z M105.5,220.9h6.7c3.7,0,6.7,3,6.7,6.7c0,3.7-3,6.7-6.7,6.7h-6.7c-3.7,0-6.7-3-6.7-6.7
		C98.8,223.9,101.8,220.9,105.5,220.9z M98.8,254.6c0-3.7,3-6.7,6.7-6.7h6.7c3.7,0,6.7,3,6.7,6.7v13.5c0,3.7-3,6.7-6.7,6.7h-6.7
		c-3.7,0-6.7-3-6.7-6.7C98.8,268.1,98.8,254.6,98.8,254.6z"/>
	<path class="st6" d="M105.5,153.4h6.7c3.7,0,6.7-3,6.7-6.7c0-3.7-3-6.7-6.7-6.7h-6.7c-3.7,0-6.7,3-6.7,6.7
		C98.8,150.4,101.8,153.4,105.5,153.4z"/>
	<path class="st5" d="M105.5,173.6h6.7c3.7,0,6.7-3,6.7-6.7c0-3.7-3-6.7-6.7-6.7h-6.7c-3.7,0-6.7,3-6.7,6.7
		C98.8,170.6,101.8,173.6,105.5,173.6z"/>
	<g>
		<path class="st6" d="M105.5,193.9h6.7c3.7,0,6.7-3,6.7-6.7s-3-6.7-6.7-6.7h-6.7c-3.7,0-6.7,3-6.7,6.7S101.8,193.9,105.5,193.9z"/>
		<path class="st6" d="M105.5,214.1h6.7c3.7,0,6.7-3,6.7-6.7c0-3.7-3-6.7-6.7-6.7h-6.7c-3.7,0-6.7,3-6.7,6.7
			C98.8,211.1,101.8,214.1,105.5,214.1z"/>
		<path class="st6" d="M105.5,234.4h6.7c3.7,0,6.7-3,6.7-6.7s-3-6.7-6.7-6.7h-6.7c-3.7,0-6.7,3-6.7,6.7S101.8,234.4,105.5,234.4z"/>
	</g>
	<path class="st5" d="M105.5,274.9h6.7c3.7,0,6.7-3,6.7-6.7v-13.5c0-3.7-3-6.7-6.7-6.7h-6.7c-3.7,0-6.7,3-6.7,6.7v13.5
		C98.8,271.9,101.8,274.9,105.5,274.9z"/>
	<g>
		<path class="st3" d="M416,133.1c0-3.7-3-6.7-6.7-6.7h-60.7c-3.7,0-6.7,3-6.7,6.7v40.5H416L416,133.1L416,133.1z M405.9,166.9h-27
			h-6.7h-20.2c-1.9,0-3.4-1.5-3.4-3.4s1.5-3.4,3.4-3.4h20.2h6.7h27c1.9,0,3.4,1.5,3.4,3.4S407.7,166.9,405.9,166.9z M405.9,153.4
			h-6.7h-6.7h-40.5c-1.9,0-3.4-1.5-3.4-3.4c0-1.9,1.5-3.4,3.4-3.4h40.5h6.7h6.7c1.9,0,3.4,1.5,3.4,3.4
			C409.2,151.9,407.7,153.4,405.9,153.4z M405.9,139.9h-40.5h-6.7h-6.7c-1.9,0-3.4-1.5-3.4-3.4c0-1.9,1.5-3.4,3.4-3.4h6.7h6.7h40.5
			c1.9,0,3.4,1.5,3.4,3.4C409.2,138.4,407.7,139.9,405.9,139.9z"/>
		<path class="st3" d="M348.5,288.4h60.7c3.7,0,6.7-3,6.7-6.7v-60.7h-74.2v60.7C341.7,285.3,344.8,288.4,348.5,288.4z M378.9,227.6
			h27c1.9,0,3.4,1.5,3.4,3.4s-1.5,3.4-3.4,3.4h-27c-1.9,0-3.4-1.5-3.4-3.4S377,227.6,378.9,227.6z M378.9,241.1h27
			c1.9,0,3.4,1.5,3.4,3.4s-1.5,3.4-3.4,3.4h-27c-1.9,0-3.4-1.5-3.4-3.4C375.5,242.6,377,241.1,378.9,241.1z M378.9,254.6h27
			c1.9,0,3.4,1.5,3.4,3.4c0,1.9-1.5,3.4-3.4,3.4h-27c-1.9,0-3.4-1.5-3.4-3.4C375.5,256.1,377,254.6,378.9,254.6z M378.9,268.1h27
			c1.9,0,3.4,1.5,3.4,3.4s-1.5,3.4-3.4,3.4h-27c-1.9,0-3.4-1.5-3.4-3.4C375.5,269.6,377,268.1,378.9,268.1z M365.4,227.6
			L365.4,227.6c1.9,0,3.4,1.5,3.4,3.4s-1.5,3.4-3.4,3.4l0,0c-1.9,0-3.4-1.5-3.4-3.4S363.5,227.6,365.4,227.6z M365.4,241.1
			L365.4,241.1c1.9,0,3.4,1.5,3.4,3.4s-1.5,3.4-3.4,3.4l0,0c-1.9,0-3.4-1.5-3.4-3.4S363.5,241.1,365.4,241.1z M365.4,254.6
			L365.4,254.6c1.9,0,3.4,1.5,3.4,3.4c0,1.9-1.5,3.4-3.4,3.4l0,0c-1.9,0-3.4-1.5-3.4-3.4C362,256.1,363.5,254.6,365.4,254.6z
			 M365.4,268.1L365.4,268.1c1.9,0,3.4,1.5,3.4,3.4s-1.5,3.4-3.4,3.4l0,0c-1.9,0-3.4-1.5-3.4-3.4C362,269.6,363.5,268.1,365.4,268.1
			z M351.9,227.6L351.9,227.6c1.9,0,3.4,1.5,3.4,3.4s-1.5,3.4-3.4,3.4l0,0c-1.9,0-3.4-1.5-3.4-3.4S350,227.6,351.9,227.6z
			 M351.9,241.1L351.9,241.1c1.9,0,3.4,1.5,3.4,3.4s-1.5,3.4-3.4,3.4l0,0c-1.9,0-3.4-1.5-3.4-3.4S350,241.1,351.9,241.1z
			 M351.9,254.6L351.9,254.6c1.9,0,3.4,1.5,3.4,3.4c0,1.9-1.5,3.4-3.4,3.4l0,0c-1.9,0-3.4-1.5-3.4-3.4
			C348.5,256.1,350,254.6,351.9,254.6z M351.9,268.1L351.9,268.1c1.9,0,3.4,1.5,3.4,3.4s-1.5,3.4-3.4,3.4l0,0
			c-1.9,0-3.4-1.5-3.4-3.4C348.5,269.6,350,268.1,351.9,268.1z"/>
	</g>
	<g>
		<path class="st5" d="M416,173.6h-74.2v47.2H416V173.6z M358.6,214.1h-6.7c-1.9,0-3.4-1.5-3.4-3.4s1.5-3.4,3.4-3.4h6.7
			c1.9,0,3.4,1.5,3.4,3.4S360.5,214.1,358.6,214.1z M358.6,200.6h-6.7c-1.9,0-3.4-1.5-3.4-3.4s1.5-3.4,3.4-3.4h6.7
			c1.9,0,3.4,1.5,3.4,3.4S360.5,200.6,358.6,200.6z M358.6,187.1h-6.7c-1.9,0-3.4-1.5-3.4-3.4s1.5-3.4,3.4-3.4h6.7
			c1.9,0,3.4,1.5,3.4,3.4S360.5,187.1,358.6,187.1z M405.9,214.1h-33.7c-1.9,0-3.4-1.5-3.4-3.4s1.5-3.4,3.4-3.4h33.7
			c1.9,0,3.4,1.5,3.4,3.4S407.7,214.1,405.9,214.1z M405.9,200.6h-33.7c-1.9,0-3.4-1.5-3.4-3.4s1.5-3.4,3.4-3.4h33.7
			c1.9,0,3.4,1.5,3.4,3.4S407.7,200.6,405.9,200.6z M405.9,187.1h-33.7c-1.9,0-3.4-1.5-3.4-3.4s1.5-3.4,3.4-3.4h33.7
			c1.9,0,3.4,1.5,3.4,3.4S407.7,187.1,405.9,187.1z"/>
		<path class="st5" d="M405.9,133.1h-40.5c1.9,0,3.4,1.5,3.4,3.4s-1.5,3.4-3.4,3.4h40.5c1.9,0,3.4-1.5,3.4-3.4
			S407.7,133.1,405.9,133.1z"/>
		<path class="st5" d="M355.2,136.5c0-1.9,1.5-3.4,3.4-3.4h-6.7c-1.9,0-3.4,1.5-3.4,3.4c0,1.9,1.5,3.4,3.4,3.4h6.7
			C356.7,139.9,355.2,138.4,355.2,136.5z"/>
		<path class="st5" d="M405.9,160.1h-27c1.9,0,3.4,1.5,3.4,3.4s-1.5,3.4-3.4,3.4h27c1.9,0,3.4-1.5,3.4-3.4S407.7,160.1,405.9,160.1z
			"/>
		<path class="st5" d="M368.7,163.5c0-1.9,1.5-3.4,3.4-3.4h-20.2c-1.9,0-3.4,1.5-3.4,3.4s1.5,3.4,3.4,3.4h20.2
			C370.2,166.9,368.7,165.4,368.7,163.5z"/>
	</g>
	<path class="st3" d="M405.9,180.4h-33.7c-1.9,0-3.4,1.5-3.4,3.4s1.5,3.4,3.4,3.4h33.7c1.9,0,3.4-1.5,3.4-3.4
		S407.7,180.4,405.9,180.4z"/>
	<g>
		<path class="st5" d="M389,150c0-1.9,1.5-3.4,3.4-3.4h-40.5c-1.9,0-3.4,1.5-3.4,3.4s1.5,3.4,3.4,3.4h40.5
			C390.5,153.4,389,151.9,389,150z"/>
		<path class="st5" d="M405.9,146.6h-6.7c1.9,0,3.4,1.5,3.4,3.4s-1.5,3.4-3.4,3.4h6.7c1.9,0,3.4-1.5,3.4-3.4
			S407.7,146.6,405.9,146.6z"/>
	</g>
	<g>
		<path class="st6" d="M368.7,136.5c0-1.9-1.5-3.4-3.4-3.4h-6.7c-1.9,0-3.4,1.5-3.4,3.4c0,1.9,1.5,3.4,3.4,3.4h6.7
			C367.2,139.9,368.7,138.4,368.7,136.5z"/>
		<path class="st6" d="M382.2,163.5c0-1.9-1.5-3.4-3.4-3.4h-6.7c-1.9,0-3.4,1.5-3.4,3.4s1.5,3.4,3.4,3.4h6.7
			C380.7,166.9,382.2,165.4,382.2,163.5z"/>
		<path class="st6" d="M358.6,180.4h-6.7c-1.9,0-3.4,1.5-3.4,3.4s1.5,3.4,3.4,3.4h6.7c1.9,0,3.4-1.5,3.4-3.4
			S360.5,180.4,358.6,180.4z"/>
	</g>
	<path class="st3" d="M405.9,193.9h-33.7c-1.9,0-3.4,1.5-3.4,3.4s1.5,3.4,3.4,3.4h33.7c1.9,0,3.4-1.5,3.4-3.4
		S407.7,193.9,405.9,193.9z"/>
	<path class="st6" d="M358.6,193.9h-6.7c-1.9,0-3.4,1.5-3.4,3.4s1.5,3.4,3.4,3.4h6.7c1.9,0,3.4-1.5,3.4-3.4S360.5,193.9,358.6,193.9
		z"/>
	<path class="st3" d="M405.9,207.4h-33.7c-1.9,0-3.4,1.5-3.4,3.4s1.5,3.4,3.4,3.4h33.7c1.9,0,3.4-1.5,3.4-3.4
		S407.7,207.4,405.9,207.4z"/>
	<g>
		<path class="st6" d="M358.6,207.4h-6.7c-1.9,0-3.4,1.5-3.4,3.4s1.5,3.4,3.4,3.4h6.7c1.9,0,3.4-1.5,3.4-3.4
			S360.5,207.4,358.6,207.4z"/>
		<path class="st6" d="M351.9,247.9L351.9,247.9c1.9,0,3.4-1.5,3.4-3.4s-1.5-3.4-3.4-3.4l0,0c-1.9,0-3.4,1.5-3.4,3.4
			C348.5,246.4,350,247.9,351.9,247.9z"/>
		<path class="st6" d="M351.9,234.4L351.9,234.4c1.9,0,3.4-1.5,3.4-3.4s-1.5-3.4-3.4-3.4l0,0c-1.9,0-3.4,1.5-3.4,3.4
			S350,234.4,351.9,234.4z"/>
		<path class="st6" d="M351.9,274.9L351.9,274.9c1.9,0,3.4-1.5,3.4-3.4s-1.5-3.4-3.4-3.4l0,0c-1.9,0-3.4,1.5-3.4,3.4
			S350,274.9,351.9,274.9z"/>
		<path class="st6" d="M351.9,261.4L351.9,261.4c1.9,0,3.4-1.5,3.4-3.4c0-1.9-1.5-3.4-3.4-3.4l0,0c-1.9,0-3.4,1.5-3.4,3.4
			C348.5,259.9,350,261.4,351.9,261.4z"/>
	</g>
	<g>
		<path class="st5" d="M365.4,247.9L365.4,247.9c1.9,0,3.4-1.5,3.4-3.4s-1.5-3.4-3.4-3.4l0,0c-1.9,0-3.4,1.5-3.4,3.4
			C362,246.4,363.5,247.9,365.4,247.9z"/>
		<path class="st5" d="M365.4,234.4L365.4,234.4c1.9,0,3.4-1.5,3.4-3.4s-1.5-3.4-3.4-3.4l0,0c-1.9,0-3.4,1.5-3.4,3.4
			S363.5,234.4,365.4,234.4z"/>
		<path class="st5" d="M365.4,274.9L365.4,274.9c1.9,0,3.4-1.5,3.4-3.4s-1.5-3.4-3.4-3.4l0,0c-1.9,0-3.4,1.5-3.4,3.4
			S363.5,274.9,365.4,274.9z"/>
		<path class="st5" d="M365.4,261.4L365.4,261.4c1.9,0,3.4-1.5,3.4-3.4c0-1.9-1.5-3.4-3.4-3.4l0,0c-1.9,0-3.4,1.5-3.4,3.4
			C362,259.9,363.5,261.4,365.4,261.4z"/>
		<path class="st5" d="M378.9,247.9h27c1.9,0,3.4-1.5,3.4-3.4s-1.5-3.4-3.4-3.4h-27c-1.9,0-3.4,1.5-3.4,3.4
			C375.5,246.4,377,247.9,378.9,247.9z"/>
		<path class="st5" d="M378.9,234.4h27c1.9,0,3.4-1.5,3.4-3.4s-1.5-3.4-3.4-3.4h-27c-1.9,0-3.4,1.5-3.4,3.4S377,234.4,378.9,234.4z"
			/>
		<path class="st5" d="M378.9,274.9h27c1.9,0,3.4-1.5,3.4-3.4s-1.5-3.4-3.4-3.4h-27c-1.9,0-3.4,1.5-3.4,3.4
			C375.5,273.4,377,274.9,378.9,274.9z"/>
		<path class="st5" d="M378.9,261.4h27c1.9,0,3.4-1.5,3.4-3.4c0-1.9-1.5-3.4-3.4-3.4h-27c-1.9,0-3.4,1.5-3.4,3.4
			C375.5,259.9,377,261.4,378.9,261.4z"/>
	</g>
	<path class="st6" d="M402.5,150c0-1.9-1.5-3.4-3.4-3.4h-6.7c-1.9,0-3.4,1.5-3.4,3.4s1.5,3.4,3.4,3.4h6.7
		C401,153.4,402.5,151.9,402.5,150z"/>
	<path class="st7" d="M159.5,214.1h50.6v-13.5h-43.9v-60.7H227v43.9c1.9,0,3.4,1.5,3.4,3.4s-1.5,3.4-3.4,3.4v10.1h-10.1v13.5h16.9
		c0.1,0,0.2,0,0.3,0l0.1-4.1c0-2.3,2.8-3.5,4.5-2l1.6,1.4c0.2-0.7,0.3-1.4,0.3-2.1v-16.9c-1.9,0-3.4-1.5-3.4-3.4s1.5-3.4,3.4-3.4
		v-50.6c0-3.7-3-6.7-6.7-6.7h-74.2c-3.7,0-6.7,3-6.7,6.7v74.2C152.8,211.1,155.8,214.1,159.5,214.1z"/>
	<g>
		<path class="st5" d="M213.5,244.5c1.9,0,3.4-1.5,3.4-3.4v-13.5c0-1.9-1.5-3.4-3.4-3.4s-3.4,1.5-3.4,3.4v13.5
			C210.1,243,211.6,244.5,213.5,244.5z"/>
		<path class="st5" d="M294.5,285H308c1.9,0,3.4-1.5,3.4-3.4c0-1.9-1.5-3.4-3.4-3.4h-13.5c-1.9,0-3.4,1.5-3.4,3.4
			C291.1,283.5,292.6,285,294.5,285z"/>
		<path class="st5" d="M308,251.3c-1.9,0-3.4,1.5-3.4,3.4v13.5c0,1.9,1.5,3.4,3.4,3.4c1.9,0,3.4-1.5,3.4-3.4v-13.5
			C311.4,252.8,309.9,251.3,308,251.3z"/>
		<path class="st5" d="M294.5,190.5H308c1.9,0,3.4-1.5,3.4-3.4s-1.5-3.4-3.4-3.4h-13.5c-1.9,0-3.4,1.5-3.4,3.4
			C291.1,189,292.6,190.5,294.5,190.5z"/>
		<path class="st5" d="M308,197.3c-1.9,0-3.4,1.5-3.4,3.4v13.5c0,1.9,1.5,3.4,3.4,3.4c1.9,0,3.4-1.5,3.4-3.4v-13.5
			C311.4,198.8,309.9,197.3,308,197.3z"/>
		<path class="st5" d="M254,278.2h-13.5c-1.9,0-3.4,1.5-3.4,3.4c0,1.9,1.5,3.4,3.4,3.4H254c1.9,0,3.4-1.5,3.4-3.4
			C257.4,279.8,255.9,278.2,254,278.2z"/>
		<path class="st5" d="M213.5,197.3c-1.9,0-3.4,1.5-3.4,3.4v13.5c0,1.9,1.5,3.4,3.4,3.4s3.4-1.5,3.4-3.4v-13.5
			C216.9,198.8,215.4,197.3,213.5,197.3z"/>
		<path class="st5" d="M227,278.2h-13.5c-1.9,0-3.4,1.5-3.4,3.4c0,1.9,1.5,3.4,3.4,3.4H227c1.9,0,3.4-1.5,3.4-3.4
			C230.4,279.8,228.9,278.2,227,278.2z"/>
		<path class="st5" d="M210.1,268.1c0,1.9,1.5,3.4,3.4,3.4s3.4-1.5,3.4-3.4v-13.5c0-1.9-1.5-3.4-3.4-3.4s-3.4,1.5-3.4,3.4V268.1z"/>
		<path class="st5" d="M308,224.3c-1.9,0-3.4,1.5-3.4,3.4v13.5c0,1.9,1.5,3.4,3.4,3.4c1.9,0,3.4-1.5,3.4-3.4v-13.5
			C311.4,225.8,309.9,224.3,308,224.3z"/>
		<path class="st5" d="M267.5,190.5H281c1.9,0,3.4-1.5,3.4-3.4s-1.5-3.4-3.4-3.4h-13.5c-1.9,0-3.4,1.5-3.4,3.4
			S265.6,190.5,267.5,190.5z"/>
		<path class="st5" d="M210.1,187.1c0,1.9,1.5,3.4,3.4,3.4H227c1.9,0,3.4-1.5,3.4-3.4s-1.5-3.4-3.4-3.4h-13.5
			C211.6,183.8,210.1,185.3,210.1,187.1z"/>
		<path class="st5" d="M267.5,285H281c1.9,0,3.4-1.5,3.4-3.4c0-1.9-1.5-3.4-3.4-3.4h-13.5c-1.9,0-3.4,1.5-3.4,3.4
			C264.1,283.5,265.6,285,267.5,285z"/>
		<path class="st5" d="M237.1,187.1c0,1.9,1.5,3.4,3.4,3.4H254c1.9,0,3.4-1.5,3.4-3.4s-1.5-3.4-3.4-3.4h-13.5
			C238.6,183.8,237.1,185.3,237.1,187.1z"/>
	</g>
	<path class="st1" d="M234.1,210.1l-0.1,4.1l-0.3,21.8c0,2,2,3.3,3.8,2.5l6.7-2.9l6,13.7c0.6,1.3,1.8,2,3.1,2c0.5,0,0.9-0.1,1.4-0.3
		c1.7-0.8,2.5-2.7,1.7-4.4l-6-13.7l6.7-2.9c1.8-0.8,2.2-3.2,0.7-4.5l-17.7-15.9l-1.6-1.4C236.9,206.5,234.1,207.7,234.1,210.1z"/>
</g>
</svg>
