<?xml version="1.0" encoding="utf-8"?>
<!-- Generator: Adobe Illustrator 21.0.2, SVG Export Plug-In . SVG Version: 6.00 Build 0)  -->
<svg version="1.1" id="Layer_1" xmlns="http://www.w3.org/2000/svg" xmlns:xlink="http://www.w3.org/1999/xlink" x="0px" y="0px"
	 viewBox="0 0 508 508" style="enable-background:new 0 0 508 508;" xml:space="preserve">
<style type="text/css">
	.st0{fill:#FAFF6C;}
	.st1{fill:#102D35;}
	.st2{fill:#EFA91B;}
	.st3{fill:#D88F0E;}
	.st4{fill:#BC7400;}
	.st5{fill:#1EA4C4;}
	.st6{fill:#0C7FA3;}
	.st7{fill:#0F2D35;}
</style>
<circle class="st0" cx="254" cy="254" r="254"/>
<g>
	<g>
		<polygon class="st1" points="426.6,152.3 346.7,150.6 347.8,73.5 426.6,73.5 		"/>
		<polygon class="st1" points="361.8,196.4 304.4,138.4 347.8,73.5 426.6,152.3 		"/>
	</g>
	<path class="st2" d="M353.6,213.2L287,146.5L188,179l-63.7,170.3l4.6,4.6l73-73c-4.1-9.8-1.7-22,6.4-30.1c11-11,29-11,40,0
		c11,11,11,29,0,40c-8.1,8.1-19.7,10.4-30.1,6.4l-71.8,73.6l4.6,4.6l170.3-63.7L353.6,213.2z"/>
	<path class="st3" d="M209.4,251.4c11-11,29-11,40,0c11,11,11,29,0,40c-8.1,8.1-19.7,10.4-30.1,6.4l-73,73l4.6,4.6l170.3-63.7
		l32.4-99.1l-66.6-66"/>
	<polyline class="st4" points="321.2,312.2 353.6,213.2 287,146.5 	"/>
	<path class="st5" d="M383.8,216.6c-9.8,9.8-25.5,9.8-35.3,0l-64.3-64.3c-9.8-9.8-9.8-25.5,0-35.3l0,0c9.8-9.8,25.5-9.8,35.3,0
		l64.3,64.3C393.6,190.6,393.6,206.8,383.8,216.6L383.8,216.6z"/>
	<path class="st6" d="M383.8,216.6L383.8,216.6c-9.8,9.8-25.5,9.8-35.3,0l-64.3-64.3c-9.8-9.8-9.8-25.5,0-35.3l0,0"/>
	<g>
		<path class="st7" d="M414.5,434.5H116.1c-19.1,0-34.8-14.5-34.8-33.6s15.6-34.2,34.8-34.2c4.6,0,8.7,4.1,8.7,8.7
			c0,4.6-4.1,8.7-8.7,8.7c-9.8,0-17.4,7-17.4,16.2s7.5,16.2,17.4,16.2h298.3c4.6,0,8.7,4.1,8.7,8.7S419.1,434.5,414.5,434.5z"/>
		<circle class="st7" cx="123.1" cy="375.9" r="12.2"/>
	</g>
</g>
</svg>
