<?xml version="1.0" encoding="utf-8"?>
<!-- Generator: Adobe Illustrator 21.0.2, SVG Export Plug-In . SVG Version: 6.00 Build 0)  -->
<svg version="1.1" id="レイヤー_1" xmlns="http://www.w3.org/2000/svg" xmlns:xlink="http://www.w3.org/1999/xlink" x="0px"
	 y="0px" viewBox="0 0 508 508" style="enable-background:new 0 0 508 508;" xml:space="preserve">
<style type="text/css">
	.st0{fill:#FF6D3B;}
	.st1{fill:#FFFFFF;}
	.st2{fill:#D9D8D7;}
	.st3{fill:#CCCBCA;}
	.st4{fill:#16C6CC;}
	.st5{fill:#242D3C;}
	.st6{fill:#3E4959;}
	.st7{fill:#E64717;}
	.st8{fill:#FFB733;}
	.st9{fill:#FFD55C;}
</style>
<circle class="st0" cx="254" cy="254" r="254"/>
<g id="Layer_1">
	<path class="st1" d="M123.5,135.4v222h291.2c18.2,0,32.8-14.6,32.8-32.8V135.4L123.5,135.4L123.5,135.4z"/>
	<g>
		<rect x="308.9" y="212.3" class="st2" width="3.4" height="15"/>
		<rect x="331.3" y="248.1" class="st2" width="20.7" height="3.4"/>
		<rect x="371.1" y="272.4" class="st2" width="3.4" height="15"/>
		<rect x="308.9" y="272.4" class="st2" width="3.4" height="15"/>
		<rect x="225.3" y="212.3" class="st2" width="3.4" height="15"/>
		<rect x="184.5" y="182.2" class="st2" width="3.4" height="15"/>
		<rect x="225.3" y="257.4" class="st2" width="3.4" height="15"/>
	</g>
	<rect x="186.1" y="293.3" class="st3" width="20.1" height="3.4"/>
	<rect x="165.5" y="197.2" class="st4" width="207.4" height="15"/>
	<rect x="336.6" y="203" class="st1" width="31.1" height="3.4"/>
	<rect x="289.8" y="197.2" class="st5" width="41.5" height="15"/>
	<g>
		<rect x="295.1" y="203" class="st1" width="31.1" height="3.4"/>
		<rect x="253.6" y="203" class="st1" width="31.1" height="3.4"/>
		<rect x="212.1" y="203" class="st1" width="31.1" height="3.4"/>
		<rect x="170.6" y="203" class="st1" width="31.1" height="3.4"/>
	</g>
	<rect x="289.8" y="227.3" class="st4" width="41.5" height="45.2"/>
	<g>
		<rect x="206.3" y="227.3" class="st0" width="41.5" height="30"/>
		<rect x="144.7" y="287.4" class="st0" width="41.5" height="15"/>
		<rect x="352.1" y="287.4" class="st0" width="41.5" height="30"/>
	</g>
	<rect x="352.1" y="227.3" class="st5" width="41.5" height="45.2"/>
	<rect x="289.8" y="287.4" class="st4" width="41.5" height="15"/>
	<g>
		<rect x="165.5" y="167.2" class="st5" width="41.5" height="15"/>
		<rect x="206.3" y="272.4" class="st5" width="41.5" height="45.2"/>
	</g>
	<rect x="170.6" y="173" class="st6" width="31.1" height="3.4"/>
	<g>
		<rect x="149.8" y="293.3" class="st7" width="31.1" height="3.4"/>
		<rect x="211.5" y="233.1" class="st7" width="31.1" height="3.4"/>
		<rect x="219.5" y="248.1" class="st7" width="15" height="3.4"/>
		<rect x="357.2" y="293.3" class="st7" width="31.1" height="3.4"/>
		<rect x="357.2" y="308.3" class="st7" width="18.4" height="3.4"/>
	</g>
	<g>
		<rect x="211.5" y="278.3" class="st6" width="31.1" height="3.4"/>
		<rect x="225.3" y="293.3" class="st6" width="17.3" height="3.4"/>
		<rect x="211.5" y="293.3" class="st6" width="8.7" height="3.4"/>
		<rect x="226" y="308.3" class="st6" width="7.9" height="3.4"/>
		<rect x="211.5" y="308.3" class="st6" width="12.2" height="3.4"/>
	</g>
	<g>
		<rect x="295.1" y="293.3" class="st1" width="31.1" height="3.4"/>
		<rect x="310.6" y="233.1" class="st1" width="15.5" height="3.4"/>
		<rect x="295.1" y="233.1" class="st1" width="10.9" height="3.4"/>
		<rect x="295.1" y="248.1" class="st1" width="31.1" height="3.4"/>
		<rect x="295.1" y="263.2" class="st1" width="22" height="3.4"/>
	</g>
	<g>
		<rect x="357.2" y="233.1" class="st6" width="31.1" height="3.4"/>
		<rect x="357.2" y="248.1" class="st6" width="18.9" height="3.4"/>
		<rect x="380.3" y="248.1" class="st6" width="8.1" height="3.4"/>
		<rect x="357.2" y="263.2" class="st6" width="13.8" height="3.4"/>
	</g>
	<path class="st5" d="M414.7,102.5v189.2c18.2,0,32.8,14.8,32.8,32.8V135.4C447.6,117.3,432.9,102.5,414.7,102.5z"/>
	<polygon class="st1" points="142.9,405.5 123.5,395.7 142.9,386.1 	"/>
	<rect x="142.9" y="386.1" class="st8" width="304.6" height="19.4"/>
	<rect x="142.9" y="386.1" class="st9" width="304.6" height="9.8"/>
	<polygon class="st5" points="131,399.6 123.5,395.7 131,391.9 	"/>
	<rect x="424.4" y="386.1" class="st1" width="6.8" height="19.4"/>
	<g>
		<rect x="431.3" y="386.1" class="st5" width="16.2" height="19.4"/>
		<rect x="60.5" y="135.4" class="st5" width="36" height="270.1"/>
	</g>
	<g>
		<rect x="60.5" y="395.1" class="st1" width="10" height="2.7"/>
		<rect x="60.5" y="377" class="st1" width="10" height="2.7"/>
		<rect x="60.5" y="359.1" class="st1" width="10" height="2.7"/>
		<rect x="60.5" y="341.1" class="st1" width="10" height="2.7"/>
		<rect x="60.5" y="323.1" class="st1" width="10" height="2.7"/>
		<rect x="60.5" y="305.1" class="st1" width="10" height="2.7"/>
		<rect x="60.5" y="287.1" class="st1" width="10" height="2.7"/>
		<rect x="60.5" y="269.1" class="st1" width="10" height="2.7"/>
		<rect x="60.5" y="251.1" class="st1" width="10" height="2.7"/>
		<rect x="60.5" y="233.1" class="st1" width="10" height="2.7"/>
		<rect x="60.5" y="215.1" class="st1" width="10" height="2.7"/>
		<rect x="60.5" y="188.1" class="st1" width="5.2" height="2.7"/>
		<rect x="60.5" y="170" class="st1" width="5.2" height="2.7"/>
		<rect x="60.5" y="152.1" class="st1" width="5.2" height="2.7"/>
		<rect x="60.5" y="386.1" class="st1" width="5.2" height="2.7"/>
		<rect x="60.5" y="368.1" class="st1" width="5.2" height="2.7"/>
		<rect x="60.5" y="350" class="st1" width="5.2" height="2.7"/>
		<rect x="60.5" y="332.1" class="st1" width="5.2" height="2.7"/>
		<rect x="60.5" y="314" class="st1" width="5.2" height="2.7"/>
		<rect x="60.5" y="296.1" class="st1" width="5.2" height="2.7"/>
		<rect x="60.5" y="278" class="st1" width="5.2" height="2.7"/>
		<rect x="60.5" y="260.1" class="st1" width="5.2" height="2.7"/>
		<rect x="60.5" y="242" class="st1" width="5.2" height="2.7"/>
		<rect x="60.5" y="224.1" class="st1" width="5.2" height="2.7"/>
		<rect x="60.5" y="206" class="st1" width="5.2" height="2.7"/>
		<rect x="60.5" y="197.1" class="st1" width="10" height="2.7"/>
		<rect x="60.5" y="179.1" class="st1" width="10" height="2.7"/>
		<rect x="60.5" y="161.1" class="st1" width="10" height="2.7"/>
		<rect x="60.5" y="143.1" class="st1" width="10" height="2.7"/>
	</g>
</g>
</svg>
