<?xml version="1.0" encoding="utf-8"?>
<!-- Generator: Adobe Illustrator 21.0.2, SVG Export Plug-In . SVG Version: 6.00 Build 0)  -->
<svg version="1.1" id="Capa_1" xmlns="http://www.w3.org/2000/svg" xmlns:xlink="http://www.w3.org/1999/xlink" x="0px" y="0px"
	 viewBox="0 0 508 508" style="enable-background:new 0 0 508 508;" xml:space="preserve">
<style type="text/css">
	.st0{fill:#74EF6E;}
	.st1{fill:#8697CB;}
	.st2{fill:#535D73;}
	.st3{fill:#FFFFFF;}
	.st4{fill:#687492;}
	.st5{fill:#F09372;}
</style>
<circle class="st0" cx="254" cy="254" r="254"/>
<g>
	<g>
		<g>
			<rect x="82" y="105" class="st1" width="347.9" height="273.3"/>
			<path class="st2" d="M436,384.6H75.8V98.8h360.3L436,384.6L436,384.6z M88.2,372.1h335.4V111.2H88.2V372.1z"/>
		</g>
		<polygon class="st3" points="231.1,285.2 231.1,241.4 231.1,198.2 299.4,241.7 		"/>
		<g>
			<rect x="82" y="105" class="st4" width="62.1" height="68.3"/>
			<path class="st2" d="M150.3,179.6H75.8V98.8h74.5V179.6z M88.2,167.2h49.7v-55.9H88.2V167.2z"/>
		</g>
		<g>
			<rect x="82" y="173.4" class="st4" width="62.1" height="68.3"/>
			<path class="st2" d="M150.3,247.9H75.8v-80.8h74.5V247.9z M88.2,235.5h49.7v-55.9H88.2V235.5z"/>
		</g>
		<g>
			<rect x="82" y="241.7" class="st4" width="62.1" height="68.3"/>
			<path class="st2" d="M150.3,316.2H75.8v-80.8h74.5V316.2z M88.2,303.8h49.7v-55.9H88.2V303.8z"/>
		</g>
		<g>
			<rect x="82" y="310" class="st4" width="62.1" height="68.3"/>
			<path class="st2" d="M150.3,384.6H75.8v-80.8h74.5V384.6z M88.2,372.1h49.7v-55.9H88.2V372.1z"/>
		</g>
		<g>
			<rect x="367.7" y="105" class="st4" width="62.1" height="68.3"/>
			<path class="st2" d="M436,179.6h-74.5V98.8H436V179.6z M373.9,167.2h49.7v-55.9h-49.7V167.2L373.9,167.2z"/>
		</g>
		<g>
			<rect x="367.7" y="173.4" class="st4" width="62.1" height="68.3"/>
			<path class="st2" d="M436,247.9h-74.5v-80.8H436V247.9z M373.9,235.5h49.7v-55.9h-49.7V235.5L373.9,235.5z"/>
		</g>
		<g>
			<rect x="367.7" y="241.7" class="st4" width="62.1" height="68.3"/>
			<path class="st2" d="M436,316.2h-74.5v-80.8H436V316.2z M373.9,303.8h49.7v-55.9h-49.7V303.8L373.9,303.8z"/>
		</g>
		<g>
			<rect x="367.7" y="310" class="st4" width="62.1" height="68.3"/>
			<path class="st2" d="M436,384.6h-74.5v-80.8H436V384.6z M373.9,372.1h49.7v-55.9h-49.7V372.1L373.9,372.1z"/>
		</g>
	</g>
	<g>
		<path class="st5" d="M373.9,323.7c6-13.5,19.3-26.1,35.3-26.1c21.6,0,37,17.5,39,38.4c0,0,1,5.2-1.3,14.5
			c-3.1,12.7-10.6,24-20.5,32.6L373.9,428l-52.5-44.9c-10-8.6-17.4-19.9-20.5-32.6c-2.3-9.3-1.3-14.5-1.3-14.5
			c1.9-20.9,17.5-38.4,39-38.4C354.6,297.6,367.9,310.1,373.9,323.7z"/>
	</g>
</g>
</svg>
