<?xml version="1.0" encoding="utf-8"?>
<!-- Generator: Adobe Illustrator 21.0.2, SVG Export Plug-In . SVG Version: 6.00 Build 0)  -->
<svg version="1.1" id="レイヤー_1" xmlns="http://www.w3.org/2000/svg" xmlns:xlink="http://www.w3.org/1999/xlink" x="0px"
	 y="0px" viewBox="0 0 597.2 313.1" style="enable-background:new 0 0 597.2 313.1;" xml:space="preserve">
<style type="text/css">
	.st0{fill:#FFFFFF;}
</style>
<title>CS5170613-nokuchikichi</title>
<g id="レイヤー_1_1_">
	<polygon class="st0" points="41.2,236 0,307.4 9.9,313.1 52.5,239.3 52.6,239.1 52.6,153.1 41.2,153.1 	"/>
	<polygon class="st0" points="391.5,278.9 407.7,278.9 407.7,267.9 391.5,267.9 391.5,243.1 380,243.1 380,267.9 363.7,267.9 
		363.7,278.9 380,278.9 380,301.4 343,301.4 343,312.5 428.3,312.5 428.3,301.4 391.5,301.4 	"/>
	<polygon class="st0" points="276.5,164.3 292.8,164.3 292.8,152.9 248.8,152.9 248.8,164.3 261.3,164.3 265.1,168.1 265.1,220.2 
		224.9,220.2 224.9,231.7 265.1,231.7 265.1,236 223.9,307.4 233.8,313.1 276.6,239.1 276.6,231.7 316.8,231.7 316.8,220.2 
		276.5,220.2 	"/>
	<polygon class="st0" points="597.2,312.5 596.8,301.3 524.9,301.3 524.9,231.9 541.2,231.9 541.2,267.7 552.2,267.7 552.2,231.9 
		564,231.9 567.5,235.4 567.5,279.1 578.7,279.1 578.7,220.3 552.2,220.3 552.2,152.8 541.2,152.8 541.2,220.3 524.9,220.3 
		524.9,152.8 513.9,152.8 513.9,220.3 501.4,220.3 501.4,231.9 513.9,231.9 513.9,312.5 	"/>
	<polygon class="st0" points="134.4,152.9 91.9,226.4 101.8,232.1 141,164.3 169.5,164.3 173.3,168.1 173.3,236 132.1,307.4 
		142,313.1 184.7,239.1 184.7,152.9 	"/>
	<polygon class="st0" points="489.7,214.4 506.3,214.4 506.3,203.3 489.7,203.3 489.7,164.8 478.7,164.8 478.7,203.3 462.3,203.3 
		462.3,214.4 478.7,214.4 478.7,267.7 462.3,267.7 462.3,278.9 506.3,278.9 506.3,267.7 489.7,267.7 	"/>
	<polygon class="st0" points="355.2,243.1 318.2,307.4 328.1,313.1 368.4,243.1 	"/>
	<polygon class="st0" points="403,243.1 443.3,313.1 453.2,307.4 416.2,243.1 	"/>
	<path class="st0" d="M359.8,220.7H343v11h85.3v-11h-15.7l-1.3-45h16.9v-11H411l-4.4-162V1.4h-11.4l0.6,20.2
		c-2.7-0.3-4.8-0.4-6.8-0.4c-1,0-2,0-3,0.1c-0.6,0-1.1,0.1-1.8,0.1s-1.3,0.1-1.9,0.1c-1.3,0.1-2.7,0.1-3.9,0
		c-0.5-0.1-0.9-0.1-1.4-0.1l0.5-20H366l-4.6,163.3H343v11h18L359.8,220.7z M376.6,27.1l3.4-0.5c0.3,0.8,1,1.4,1.8,1.6
		c1,0.1,2-0.4,2.8-1.1l11.2,1.8l0.4,15.6l-0.6-0.1h-0.4c-0.5-0.3-1-0.4-1.6-0.4c-0.4,0.1-0.8,0.3-1.1,0.4c-0.3,0.1-0.5,0.1-0.8,0.3
		c-1.9,0.3-3.9,0.4-6.2,0.5c-0.8,0-1.5,0.4-2,1l-1-0.3l-0.4-0.1c-0.6-0.4-1.3-0.4-1.9-0.4c-1.3,0.3-2.5,0.4-3.9,0.4L376.6,27.1z
		 M376,52.4l0.6-0.1L378,52l0,0l0.1,0.3c0.3,0.4,0.6,0.6,1.1,0.6h0.3c0.5-0.1,1-0.5,1.1-1l0,0l0.5,0.3c1.4,0.6,2.9,0.8,4.4,0.4
		c1.3-0.3,2.4-0.4,3.7-0.4h1.5h0.5c1.6-0.1,3.4-0.1,5.1-0.1l0.4,11.4c-1.8-0.1-3.5-0.1-5.5,0.1c-1.6,0.3-3.3,0.8-4.8,1.4
		c-0.6,0.3-1.3,0.5-2,0.6h-0.1l-0.6-0.3c-0.6-0.4-1.5,0-1.8,0.6c0,0,0,0,0,0.1c-0.9-0.1-1.8-0.1-2.7,0.3l-0.6,0.1
		c-1,0.1-2.2,0.3-3.2,0.3L376,52.4z M375.4,73.8c0.1,0,0.3,0,0.4,0l1-0.1c1.3-0.1,2.5-0.5,3.7-1.1c0.9-0.3,1.9-0.4,2.8-0.3
		c0.8,0.1,1.6,0.1,2.4,0c3.5-0.4,7.1-0.8,10.5-1.1l1-0.1l0.5,16.7c-2.7,0.1-5.5,0.4-8.1,0.5l-2,0.1c-0.8,0-1.4,0.1-2.2,0.3l-1.1,0.1
		c-0.5,0.1-1,0.1-1.5,0.1c-1,0.1-2,0.3-3,0.6c-1.4,0.5-2.9,0.6-4.3,0.4c-0.1,0-0.3,0-0.4-0.1L375.4,73.8z M374.7,96.6
		c0.6,0,1.3,0,1.9,0.1c0.8,0.1,1.5,0.1,2.3,0h0.8h1.4l2.3-0.1c0.3,0,0.5,0,0.8,0c0.5,0,1,0,1.5,0c0.8-0.1,1.5-0.3,2.2-0.4
		c1.5-0.5,3.2-0.5,4.7,0c0.5,0.1,1,0.1,1.5,0h0.1l2.3-0.1l1.4-0.1l0.5,17.1c-0.5,0-0.9,0.1-1.4,0.3c-0.1,0-0.3,0-0.4,0
		c-0.5,0-0.9,0-1.4,0.1c-0.4,0.1-0.9,0.1-1.3,0.1c-1-0.1-2,0.1-2.8,0.6h-0.3c-0.8-0.1-1.5-0.3-2.3-0.3c-1.1,0-2.3,0.1-3.4,0.3
		l-1.6,0.1c-0.4,0-0.9,0-1.3,0l-3.8-0.1l-2.9-0.1c-0.5,0-0.9,0-1.4,0L374.7,96.6z M374,122.1l24.5-0.1l0.5,18.1h-0.4h-4.1
		c-2.3,0-5.3-0.1-8.4-0.3c-0.5,0-1-0.1-1.6-0.1c-1-0.3-2.2-0.3-3.2-0.1h-0.4c-2.2,0.4-4.3,0.5-6.5,0.3c-0.4,0-0.9,0-1.3,0.1
		L374,122.1z M373.3,147.6c0.4,0,0.8,0.1,1.1,0.1h1.1c1.3,0,2.5,0.1,3.8,0.1h4.7c2,0,4.1,0,6.1,0.1c0.9,0,1.9,0.1,2.8,0.1
		c0.9,0,2.2,0.1,3.3,0.1h0.6c0.8,0,1.5,0,2.3,0l0.5,16.2h-26.9L373.3,147.6z M372.4,175.7h27.5l0.3,9.3c-1.4,0.1-2.8,0.1-4.3,0
		c-0.9,0-1.8-0.1-2.8-0.1h-4.8h-0.6h-1.9c-1.1,0-2.4,0-3.5,0c-0.9,0-1.6,0-2.5-0.1c-1.3,0-2.7-0.1-3.9-0.1c-0.8,0-1.4,0.1-2.2,0.3
		c-0.5,0.1-1,0.1-1.4,0.3L372.4,175.7z M372.1,192.8l0.8-0.1c0.8-0.1,1.5-0.3,2.3-0.3h0.8c1.9,0,3.8,0,5.6,0.1
		c1.6,0.1,3.2,0.4,4.8,0.6l1.3,0.1c0.3,0.4,0.5,0.5,0.9,0.6h0.3c0.5,0,0.9-0.3,1.1-0.6h10.6l0.3,9.5c-1.5-0.6-3-0.8-4.7-0.6
		c-0.6,0.1-1.1,0.1-1.8,0.4c-0.4,0.1-0.8,0.3-1.1,0.3c-2.3,0.4-4.7,0.6-7,0.9l-2.7,0.4h-0.1c-3.2-1-6,0.1-8.4,1.1l0,0
		c-0.5-0.5-1.3-0.9-2-0.8c-0.5,0.1-0.9,0.4-1.3,0.8L372.1,192.8z M371.4,213.1l1.9-0.3c0.8-0.1,1.6-0.3,2.4-0.3
		c2-0.1,4.2-0.4,6.3-0.5l4.1-0.3l4.8-0.4l6.3-0.5c1.3-0.1,2.4,0,3.8-0.1l0.3,10h-30L371.4,213.1z"/>
</g>
<g id="ローマ字">
	<path class="st0" d="M1.5,38.8V0l23.7,22.8c0.6,0.6,1.3,1.4,2,2c0.6,0.8,1.4,1.5,2,2.4V1.5h5.6v38.8L10.8,17
		c-0.6-0.6-1.3-1.3-1.9-2s-1.1-1.4-1.8-2.2v26H1.5z"/>
	<path class="st0" d="M87,20.2c0,5.2-2,10.3-5.8,13.8c-1.9,1.8-4.1,3.3-6.5,4.3c-2.4,1-4.9,1.5-7.6,1.5c-2.7,0-5.2-0.5-7.7-1.5
		c-2.4-1-4.6-2.4-6.5-4.3c-1.9-1.8-3.3-3.9-4.3-6.3c-3.2-7.4-1.4-15.8,4.3-21.4c1.9-1.8,4.1-3.3,6.5-4.2c4.9-1.9,10.4-1.9,15.3,0
		c2.4,1,4.6,2.4,6.5,4.2c1.9,1.8,3.3,3.9,4.3,6.3C86.5,15,87,17.6,87,20.2z M80.6,20.2c0-1.9-0.4-3.7-1-5.3s-1.6-3.3-2.9-4.6
		c-2.5-2.7-6-4.1-9.6-4.1c-5.6,0-10.5,3.4-12.5,8.6c-0.6,1.8-1,3.5-1,5.5c0,1.8,0.4,3.7,1,5.3c0.6,1.6,1.6,3.2,2.9,4.6
		c2.5,2.7,6,4.1,9.6,4.1c1.8,0,3.5-0.4,5.2-1c1.6-0.8,3.2-1.8,4.4-3C79.2,27.4,80.6,23.8,80.6,20.2L80.6,20.2z"/>
	<path class="st0" d="M99.1,38.8V1.5h6.1V17l13.4-15.5h7.5l-15,16.5l16.5,20.7h-7.7l-14.7-18.9v19H99.1z"/>
	<path class="st0" d="M136.5,1.5h6v22.6c0,3.4,0.8,6,2.3,7.6c4.1,3.4,9.9,3.4,13.9,0c1.5-1.6,2.3-4.2,2.3-7.6V1.5h6.1v23.2
		c0,5.1-1.3,8.9-3.8,11.3s-6.3,3.8-11.5,3.8c-5.1,0-9-1.3-11.5-3.8s-3.8-6.3-3.8-11.3V1.5H136.5z"/>
	<path class="st0" d="M210.7,10.5c-1.6-1.4-3.4-2.5-5.5-3.3c-1.9-0.8-3.9-1.1-6.1-1.1c-3.7-0.1-7.4,1.3-10,3.9
		c-5.1,5.7-5.1,14.3-0.1,20.2c2.4,2.5,5.8,4.1,9.4,3.9c2.2,0,4.3-0.4,6.3-1.1c2.2-0.9,4.1-2,5.7-3.5v6.8c-1.6,1.1-3.4,2-5.3,2.7
		c-4.7,1.3-9.6,1.1-14.2-0.5c-4.8-1.9-8.6-5.6-10.5-10.4c-1.9-4.9-1.9-10.5,0-15.5c2-4.8,5.8-8.6,10.6-10.5c2.5-1,5.1-1.4,7.7-1.4
		c2.2,0,4.2,0.3,6.2,1c2,0.6,4.1,1.6,5.8,2.9L210.7,10.5z"/>
	<path class="st0" d="M223.5,38.8V1.5h6.1v13.7H248V1.5h6.1v37.3H248V20.7h-18.5v18.1H223.5z"/>
	<path class="st0" d="M270.4,38.8V1.5h6.1v37.3H270.4z"/>
	<path class="st0" d="M296.6,18.5h21.9v5.1h-21.9V18.5z"/>
	<path class="st0" d="M445.7,38.8V1.5h6.1V17l13.4-15.5h7.4l-14.8,16.6l16.5,20.7h-7.9l-14.7-19v19
		C451.7,38.8,445.7,38.8,445.7,38.8z"/>
	<path class="st0" d="M483.4,38.8V1.5h6.1v37.3H483.4z"/>
	<path class="st0" d="M533.3,10.5c-1.6-1.4-3.4-2.5-5.5-3.3c-1.9-0.8-3.9-1.1-6.1-1.1c-3.7-0.1-7.4,1.3-9.9,3.9
		c-5.1,5.7-5.1,14.3-0.1,20.2c2.4,2.5,5.8,4.1,9.4,3.9c2.2,0,4.3-0.4,6.3-1.1c2.2-0.9,4.1-2,5.7-3.5v6.8c-1.6,1.1-3.4,2-5.3,2.7
		c-4.7,1.3-9.6,1.1-14.2-0.5c-4.8-1.9-8.6-5.6-10.5-10.4c-1.9-4.9-1.9-10.5,0-15.5c2-4.8,5.8-8.6,10.6-10.5c2.4-1,5.1-1.4,7.7-1.4
		c2.2,0,4.2,0.3,6.3,1c2,0.6,4.1,1.6,5.8,2.9L533.3,10.5z"/>
	<path class="st0" d="M546,38.8V1.5h6.1v13.7h18.4V1.5h6.1v37.3h-6.1V20.7h-18.3v18.1H546z"/>
	<path class="st0" d="M590.3,38.8V1.5h6.1v37.3H590.3z"/>
</g>
</svg>
